<mxfile host="app.diagrams.net" modified="2023-02-15T08:57:49.493Z" agent="5.0 (Windows NT 10.0; Win64; x64) AppleWebKit/537.36 (KHTML, like Gecko) Chrome/110.0.0.0 Safari/537.36" etag="rdyhEcivLpjMFS87COQW" version="20.6.0" type="github">
  <diagram id="dH2hLQC4E_WSqq93PLYH" name="第 1 页">
    <mxGraphModel dx="1730" dy="805" grid="1" gridSize="19" guides="1" tooltips="1" connect="1" arrows="1" fold="1" page="1" pageScale="1" pageWidth="3300" pageHeight="4681" math="0" shadow="0">
      <root>
        <mxCell id="0" />
        <mxCell id="1" parent="0" />
        <mxCell id="3elcdA-hPDRkj9ZMIHb9-7" value="客户端" style="shape=umlLifeline;perimeter=lifelinePerimeter;whiteSpace=wrap;html=1;container=1;collapsible=0;recursiveResize=0;outlineConnect=0;fillColor=#ffcd28;gradientColor=#ffa500;strokeColor=#d79b00;" parent="1" vertex="1">
          <mxGeometry x="160" y="120" width="170" height="650" as="geometry" />
        </mxCell>
        <mxCell id="3elcdA-hPDRkj9ZMIHb9-10" value="" style="html=1;points=[];perimeter=orthogonalPerimeter;strokeColor=rgb(0, 0, 0);fontFamily=Helvetica;fontSize=12;fontColor=rgb(0, 0, 0);fillColor=rgb(255, 255, 255);" parent="3elcdA-hPDRkj9ZMIHb9-7" vertex="1">
          <mxGeometry x="80" y="170" width="10" height="80" as="geometry" />
        </mxCell>
        <mxCell id="3elcdA-hPDRkj9ZMIHb9-16" value="" style="html=1;points=[];perimeter=orthogonalPerimeter;strokeColor=rgb(0, 0, 0);fontFamily=Helvetica;fontSize=12;fontColor=rgb(0, 0, 0);fillColor=rgb(255, 255, 255);" parent="3elcdA-hPDRkj9ZMIHb9-7" vertex="1">
          <mxGeometry x="80" y="270" width="10" height="80" as="geometry" />
        </mxCell>
        <mxCell id="aSaav4n1bJc0CXSEU9K_-32" value="" style="html=1;points=[];perimeter=orthogonalPerimeter;strokeColor=rgb(0, 0, 0);fontFamily=Helvetica;fontSize=12;fontColor=rgb(0, 0, 0);fillColor=rgb(255, 255, 255);" vertex="1" parent="3elcdA-hPDRkj9ZMIHb9-7">
          <mxGeometry x="80" y="50" width="10" height="100" as="geometry" />
        </mxCell>
        <mxCell id="3elcdA-hPDRkj9ZMIHb9-25" value="" style="html=1;points=[];perimeter=orthogonalPerimeter;strokeColor=rgb(0, 0, 0);fontFamily=Helvetica;fontSize=12;fontColor=rgb(0, 0, 0);fillColor=rgb(255, 255, 255);" parent="3elcdA-hPDRkj9ZMIHb9-7" vertex="1">
          <mxGeometry x="80" y="380" width="10" height="80" as="geometry" />
        </mxCell>
        <mxCell id="3elcdA-hPDRkj9ZMIHb9-31" value="" style="html=1;points=[];perimeter=orthogonalPerimeter;strokeColor=rgb(0, 0, 0);fontFamily=Helvetica;fontSize=12;fontColor=rgb(0, 0, 0);fillColor=rgb(255, 255, 255);" parent="3elcdA-hPDRkj9ZMIHb9-7" vertex="1">
          <mxGeometry x="80" y="480" width="10" height="110" as="geometry" />
        </mxCell>
        <mxCell id="3elcdA-hPDRkj9ZMIHb9-8" value="IM-route" style="shape=umlLifeline;perimeter=lifelinePerimeter;whiteSpace=wrap;html=1;container=1;collapsible=0;recursiveResize=0;outlineConnect=0;fillColor=#dae8fc;gradientColor=#7ea6e0;strokeColor=#6c8ebf;" parent="1" vertex="1">
          <mxGeometry x="414" y="120" width="130" height="540" as="geometry" />
        </mxCell>
        <mxCell id="3elcdA-hPDRkj9ZMIHb9-11" value="" style="html=1;points=[];perimeter=orthogonalPerimeter;strokeColor=rgb(0, 0, 0);fontFamily=Helvetica;fontSize=12;fontColor=rgb(0, 0, 0);fillColor=rgb(255, 255, 255);" parent="3elcdA-hPDRkj9ZMIHb9-8" vertex="1">
          <mxGeometry x="60" y="160" width="10" height="80" as="geometry" />
        </mxCell>
        <mxCell id="3elcdA-hPDRkj9ZMIHb9-26" value="" style="html=1;points=[];perimeter=orthogonalPerimeter;strokeColor=rgb(0, 0, 0);fontFamily=Helvetica;fontSize=12;fontColor=rgb(0, 0, 0);fillColor=rgb(255, 255, 255);" parent="3elcdA-hPDRkj9ZMIHb9-8" vertex="1">
          <mxGeometry x="60" y="380" width="10" height="80" as="geometry" />
        </mxCell>
        <mxCell id="aSaav4n1bJc0CXSEU9K_-55" value="" style="endArrow=classic;html=1;rounded=0;fontFamily=Helvetica;fontSize=12;fontColor=rgb(0, 0, 0);" edge="1" parent="3elcdA-hPDRkj9ZMIHb9-8" target="3elcdA-hPDRkj9ZMIHb9-11">
          <mxGeometry width="50" height="50" relative="1" as="geometry">
            <mxPoint x="77" y="197" as="sourcePoint" />
            <mxPoint x="127" y="180" as="targetPoint" />
            <Array as="points">
              <mxPoint x="96" y="197" />
              <mxPoint x="96" y="220" />
            </Array>
          </mxGeometry>
        </mxCell>
        <mxCell id="aSaav4n1bJc0CXSEU9K_-56" value="验证userSig" style="text;html=1;strokeColor=none;fillColor=none;align=center;verticalAlign=middle;whiteSpace=wrap;rounded=0;fontFamily=Helvetica;fontSize=12;fontColor=rgb(0, 0, 0);" vertex="1" parent="3elcdA-hPDRkj9ZMIHb9-8">
          <mxGeometry x="96" y="195" width="60" height="30" as="geometry" />
        </mxCell>
        <mxCell id="3elcdA-hPDRkj9ZMIHb9-9" value="IM-server" style="shape=umlLifeline;perimeter=lifelinePerimeter;whiteSpace=wrap;html=1;container=1;collapsible=0;recursiveResize=0;outlineConnect=0;fillColor=#dae8fc;gradientColor=#7ea6e0;strokeColor=#6c8ebf;" parent="1" vertex="1">
          <mxGeometry x="603.5" y="120" width="162.75" height="741" as="geometry" />
        </mxCell>
        <mxCell id="3elcdA-hPDRkj9ZMIHb9-17" value="" style="html=1;points=[];perimeter=orthogonalPerimeter;strokeColor=rgb(0, 0, 0);fontFamily=Helvetica;fontSize=12;fontColor=rgb(0, 0, 0);fillColor=rgb(255, 255, 255);" parent="3elcdA-hPDRkj9ZMIHb9-9" vertex="1">
          <mxGeometry x="76.36999999999999" y="270" width="10" height="80" as="geometry" />
        </mxCell>
        <mxCell id="3elcdA-hPDRkj9ZMIHb9-39" value="" style="html=1;points=[];perimeter=orthogonalPerimeter;strokeColor=rgb(0, 0, 0);fontFamily=Helvetica;fontSize=12;fontColor=rgb(0, 0, 0);fillColor=rgb(255, 255, 255);" parent="3elcdA-hPDRkj9ZMIHb9-9" vertex="1">
          <mxGeometry x="76.37" y="456" width="10" height="285" as="geometry" />
        </mxCell>
        <mxCell id="aSaav4n1bJc0CXSEU9K_-17" value="" style="endArrow=classic;html=1;rounded=0;dashed=1;fontFamily=Helvetica;fontSize=12;fontColor=rgb(0, 0, 0);exitX=1.122;exitY=0.286;exitDx=0;exitDy=0;exitPerimeter=0;" edge="1" parent="3elcdA-hPDRkj9ZMIHb9-9" source="3elcdA-hPDRkj9ZMIHb9-17" target="3elcdA-hPDRkj9ZMIHb9-17">
          <mxGeometry width="50" height="50" relative="1" as="geometry">
            <mxPoint x="78.8700000000001" y="330" as="sourcePoint" />
            <mxPoint x="28.87000000000011" y="280" as="targetPoint" />
            <Array as="points">
              <mxPoint x="80.24" y="323" />
            </Array>
          </mxGeometry>
        </mxCell>
        <mxCell id="aSaav4n1bJc0CXSEU9K_-18" value="鉴权绑定" style="text;html=1;strokeColor=none;fillColor=none;align=center;verticalAlign=middle;whiteSpace=wrap;rounded=0;fontFamily=Helvetica;fontSize=12;fontColor=rgb(0, 0, 0);" vertex="1" parent="3elcdA-hPDRkj9ZMIHb9-9">
          <mxGeometry x="122.74" y="295" width="44.25" height="30" as="geometry" />
        </mxCell>
        <mxCell id="3elcdA-hPDRkj9ZMIHb9-12" value="" style="edgeStyle=orthogonalEdgeStyle;rounded=0;orthogonalLoop=1;jettySize=auto;html=1;fontFamily=Helvetica;fontSize=12;fontColor=rgb(0, 0, 0);exitX=0.98;exitY=0.233;exitDx=0;exitDy=0;exitPerimeter=0;entryX=-0.1;entryY=0.348;entryDx=0;entryDy=0;entryPerimeter=0;" parent="1" source="3elcdA-hPDRkj9ZMIHb9-10" target="3elcdA-hPDRkj9ZMIHb9-11" edge="1">
          <mxGeometry relative="1" as="geometry">
            <mxPoint x="454.04999999999995" y="309.36" as="targetPoint" />
          </mxGeometry>
        </mxCell>
        <mxCell id="3elcdA-hPDRkj9ZMIHb9-13" value="登录" style="edgeLabel;html=1;align=center;verticalAlign=middle;resizable=0;points=[];fontSize=12;fontFamily=Helvetica;fontColor=rgb(0, 0, 0);" parent="3elcdA-hPDRkj9ZMIHb9-12" vertex="1" connectable="0">
          <mxGeometry x="0.1893" y="3" relative="1" as="geometry">
            <mxPoint x="-13" y="4" as="offset" />
          </mxGeometry>
        </mxCell>
        <mxCell id="3elcdA-hPDRkj9ZMIHb9-14" value="" style="edgeStyle=orthogonalEdgeStyle;rounded=0;orthogonalLoop=1;jettySize=auto;html=1;fontFamily=Helvetica;fontSize=12;fontColor=rgb(0, 0, 0);dashed=1;exitX=-0.18;exitY=0.898;exitDx=0;exitDy=0;exitPerimeter=0;entryX=1.31;entryY=0.773;entryDx=0;entryDy=0;entryPerimeter=0;" parent="1" source="3elcdA-hPDRkj9ZMIHb9-11" target="3elcdA-hPDRkj9ZMIHb9-10" edge="1">
          <mxGeometry relative="1" as="geometry">
            <mxPoint x="454.25" y="330" as="sourcePoint" />
          </mxGeometry>
        </mxCell>
        <mxCell id="3elcdA-hPDRkj9ZMIHb9-15" value="返回路由信息跟token" style="edgeLabel;html=1;align=center;verticalAlign=middle;resizable=0;points=[];fontSize=12;fontFamily=Helvetica;fontColor=rgb(0, 0, 0);" parent="3elcdA-hPDRkj9ZMIHb9-14" vertex="1" connectable="0">
          <mxGeometry x="-0.094" y="2" relative="1" as="geometry">
            <mxPoint as="offset" />
          </mxGeometry>
        </mxCell>
        <mxCell id="3elcdA-hPDRkj9ZMIHb9-18" value="" style="edgeStyle=orthogonalEdgeStyle;rounded=0;orthogonalLoop=1;jettySize=auto;html=1;fontFamily=Helvetica;fontSize=12;fontColor=rgb(0, 0, 0);exitX=1.12;exitY=0.263;exitDx=0;exitDy=0;exitPerimeter=0;entryX=-0.06;entryY=0.272;entryDx=0;entryDy=0;entryPerimeter=0;startArrow=none;startFill=0;endArrow=classicThin;endFill=1;" parent="1" source="3elcdA-hPDRkj9ZMIHb9-16" target="3elcdA-hPDRkj9ZMIHb9-17" edge="1">
          <mxGeometry relative="1" as="geometry" />
        </mxCell>
        <mxCell id="3elcdA-hPDRkj9ZMIHb9-19" value="建立websocket长连接" style="edgeLabel;html=1;align=center;verticalAlign=middle;resizable=0;points=[];fontSize=12;fontFamily=Helvetica;fontColor=rgb(0, 0, 0);" parent="3elcdA-hPDRkj9ZMIHb9-18" vertex="1" connectable="0">
          <mxGeometry x="0.0659" y="-1" relative="1" as="geometry">
            <mxPoint as="offset" />
          </mxGeometry>
        </mxCell>
        <mxCell id="3elcdA-hPDRkj9ZMIHb9-27" value="" style="edgeStyle=orthogonalEdgeStyle;rounded=0;orthogonalLoop=1;jettySize=auto;html=1;fontFamily=Helvetica;fontSize=12;fontColor=rgb(0, 0, 0);startArrow=none;startFill=0;endArrow=classicThin;endFill=1;exitX=0.98;exitY=0.297;exitDx=0;exitDy=0;exitPerimeter=0;entryX=-0.18;entryY=0.307;entryDx=0;entryDy=0;entryPerimeter=0;" parent="1" source="3elcdA-hPDRkj9ZMIHb9-25" target="3elcdA-hPDRkj9ZMIHb9-26" edge="1">
          <mxGeometry relative="1" as="geometry" />
        </mxCell>
        <mxCell id="3elcdA-hPDRkj9ZMIHb9-28" value="加入群组" style="edgeLabel;html=1;align=center;verticalAlign=middle;resizable=0;points=[];fontSize=12;fontFamily=Helvetica;fontColor=rgb(0, 0, 0);" parent="3elcdA-hPDRkj9ZMIHb9-27" vertex="1" connectable="0">
          <mxGeometry x="-0.2075" y="1" relative="1" as="geometry">
            <mxPoint x="12" y="-3" as="offset" />
          </mxGeometry>
        </mxCell>
        <mxCell id="3elcdA-hPDRkj9ZMIHb9-29" value="" style="edgeStyle=orthogonalEdgeStyle;rounded=0;orthogonalLoop=1;jettySize=auto;html=1;fontFamily=Helvetica;fontSize=12;fontColor=rgb(0, 0, 0);startArrow=none;startFill=0;endArrow=classicThin;endFill=1;exitX=-0.26;exitY=0.647;exitDx=0;exitDy=0;exitPerimeter=0;entryX=1.364;entryY=0.655;entryDx=0;entryDy=0;entryPerimeter=0;" parent="1" source="3elcdA-hPDRkj9ZMIHb9-26" edge="1" target="3elcdA-hPDRkj9ZMIHb9-25">
          <mxGeometry relative="1" as="geometry">
            <mxPoint x="215.25" y="552" as="targetPoint" />
          </mxGeometry>
        </mxCell>
        <mxCell id="3elcdA-hPDRkj9ZMIHb9-30" value="返回" style="edgeLabel;html=1;align=center;verticalAlign=middle;resizable=0;points=[];fontSize=12;fontFamily=Helvetica;fontColor=rgb(0, 0, 0);" parent="3elcdA-hPDRkj9ZMIHb9-29" vertex="1" connectable="0">
          <mxGeometry x="0.1389" y="-1" relative="1" as="geometry">
            <mxPoint as="offset" />
          </mxGeometry>
        </mxCell>
        <mxCell id="3elcdA-hPDRkj9ZMIHb9-33" value="" style="edgeStyle=orthogonalEdgeStyle;rounded=0;orthogonalLoop=1;jettySize=auto;html=1;fontFamily=Helvetica;fontSize=12;fontColor=rgb(0, 0, 0);startArrow=none;startFill=0;endArrow=classicThin;endFill=1;" parent="1" edge="1">
          <mxGeometry relative="1" as="geometry">
            <mxPoint x="250" y="618" as="sourcePoint" />
            <mxPoint x="684" y="618" as="targetPoint" />
          </mxGeometry>
        </mxCell>
        <mxCell id="3elcdA-hPDRkj9ZMIHb9-34" value="向群组发送消息" style="edgeLabel;html=1;align=center;verticalAlign=middle;resizable=0;points=[];fontSize=12;fontFamily=Helvetica;fontColor=rgb(0, 0, 0);" parent="3elcdA-hPDRkj9ZMIHb9-33" vertex="1" connectable="0">
          <mxGeometry x="-0.22" y="4" relative="1" as="geometry">
            <mxPoint x="-17" y="4" as="offset" />
          </mxGeometry>
        </mxCell>
        <mxCell id="3elcdA-hPDRkj9ZMIHb9-40" value="" style="edgeStyle=orthogonalEdgeStyle;rounded=0;orthogonalLoop=1;jettySize=auto;html=1;fontFamily=Helvetica;fontSize=12;fontColor=rgb(0, 0, 0);startArrow=none;startFill=0;endArrow=classicThin;endFill=1;exitX=1.22;exitY=0.907;exitDx=0;exitDy=0;exitPerimeter=0;" parent="1" edge="1" source="3elcdA-hPDRkj9ZMIHb9-32">
          <mxGeometry relative="1" as="geometry">
            <mxPoint x="380.25" y="689.5" as="sourcePoint" />
            <mxPoint x="684" y="767" as="targetPoint" />
          </mxGeometry>
        </mxCell>
        <mxCell id="3elcdA-hPDRkj9ZMIHb9-41" value="发送消息给对应的server发送" style="edgeLabel;html=1;align=center;verticalAlign=middle;resizable=0;points=[];fontSize=12;fontFamily=Helvetica;fontColor=rgb(0, 0, 0);" parent="3elcdA-hPDRkj9ZMIHb9-40" vertex="1" connectable="0">
          <mxGeometry x="-0.22" y="4" relative="1" as="geometry">
            <mxPoint x="21" y="7" as="offset" />
          </mxGeometry>
        </mxCell>
        <mxCell id="3elcdA-hPDRkj9ZMIHb9-43" value="客户端2" style="shape=umlLifeline;perimeter=lifelinePerimeter;whiteSpace=wrap;html=1;container=1;collapsible=0;recursiveResize=0;outlineConnect=0;fillColor=#ffcd28;gradientColor=#ffa500;strokeColor=#d79b00;glass=0;rounded=0;sketch=0;shadow=0;" parent="1" vertex="1">
          <mxGeometry x="1090" y="120" width="130" height="722" as="geometry" />
        </mxCell>
        <mxCell id="3elcdA-hPDRkj9ZMIHb9-46" value="" style="html=1;points=[];perimeter=orthogonalPerimeter;strokeColor=rgb(0, 0, 0);fontFamily=Helvetica;fontSize=12;fontColor=rgb(0, 0, 0);fillColor=rgb(255, 255, 255);" parent="3elcdA-hPDRkj9ZMIHb9-43" vertex="1">
          <mxGeometry x="60" y="555" width="10" height="167" as="geometry" />
        </mxCell>
        <mxCell id="3elcdA-hPDRkj9ZMIHb9-47" value="" style="edgeStyle=orthogonalEdgeStyle;rounded=0;orthogonalLoop=1;jettySize=auto;html=1;fontFamily=Helvetica;fontSize=12;fontColor=rgb(0, 0, 0);startArrow=none;startFill=0;endArrow=classicThin;endFill=1;entryX=-0.186;entryY=0.672;entryDx=0;entryDy=0;entryPerimeter=0;exitX=1.227;exitY=0.743;exitDx=0;exitDy=0;exitPerimeter=0;" parent="1" target="3elcdA-hPDRkj9ZMIHb9-46" edge="1" source="3elcdA-hPDRkj9ZMIHb9-39">
          <mxGeometry relative="1" as="geometry">
            <mxPoint x="690" y="716" as="sourcePoint" />
            <mxPoint x="730.25" y="720" as="targetPoint" />
            <Array as="points" />
          </mxGeometry>
        </mxCell>
        <mxCell id="3elcdA-hPDRkj9ZMIHb9-48" value="发送消息" style="edgeLabel;html=1;align=center;verticalAlign=middle;resizable=0;points=[];fontSize=12;fontFamily=Helvetica;fontColor=rgb(0, 0, 0);" parent="3elcdA-hPDRkj9ZMIHb9-47" vertex="1" connectable="0">
          <mxGeometry x="-0.22" y="4" relative="1" as="geometry">
            <mxPoint x="23" y="4" as="offset" />
          </mxGeometry>
        </mxCell>
        <mxCell id="3elcdA-hPDRkj9ZMIHb9-49" value="" style="edgeStyle=orthogonalEdgeStyle;rounded=0;orthogonalLoop=1;jettySize=auto;html=1;fontFamily=Helvetica;fontSize=12;fontColor=rgb(0, 0, 0);dashed=1;exitX=-0.1;exitY=0.888;exitDx=0;exitDy=0;exitPerimeter=0;entryX=1.227;entryY=0.882;entryDx=0;entryDy=0;entryPerimeter=0;" parent="1" edge="1" target="3elcdA-hPDRkj9ZMIHb9-39" source="3elcdA-hPDRkj9ZMIHb9-46">
          <mxGeometry relative="1" as="geometry">
            <mxPoint x="732.75" y="760" as="sourcePoint" />
            <mxPoint x="690" y="760" as="targetPoint" />
          </mxGeometry>
        </mxCell>
        <mxCell id="3elcdA-hPDRkj9ZMIHb9-50" value="消息确认" style="edgeLabel;html=1;align=center;verticalAlign=middle;resizable=0;points=[];fontSize=12;fontFamily=Helvetica;fontColor=rgb(0, 0, 0);" parent="3elcdA-hPDRkj9ZMIHb9-49" vertex="1" connectable="0">
          <mxGeometry x="-0.094" y="2" relative="1" as="geometry">
            <mxPoint y="-2" as="offset" />
          </mxGeometry>
        </mxCell>
        <mxCell id="aSaav4n1bJc0CXSEU9K_-37" value="cbk-server" style="shape=umlLifeline;perimeter=lifelinePerimeter;whiteSpace=wrap;html=1;container=1;collapsible=0;recursiveResize=0;outlineConnect=0;fillColor=#f8cecc;gradientColor=#ea6b66;strokeColor=#b85450;" vertex="1" parent="1">
          <mxGeometry x="820" y="120" width="190" height="680" as="geometry" />
        </mxCell>
        <mxCell id="aSaav4n1bJc0CXSEU9K_-48" value="" style="html=1;points=[];perimeter=orthogonalPerimeter;strokeColor=rgb(0, 0, 0);fontFamily=Helvetica;fontSize=12;fontColor=rgb(0, 0, 0);fillColor=rgb(255, 255, 255);" vertex="1" parent="aSaav4n1bJc0CXSEU9K_-37">
          <mxGeometry x="90" y="60" width="10" height="80" as="geometry" />
        </mxCell>
        <mxCell id="aSaav4n1bJc0CXSEU9K_-51" value="" style="endArrow=classic;html=1;rounded=0;fontFamily=Helvetica;fontSize=12;fontColor=rgb(0, 0, 0);exitX=1.036;exitY=0.524;exitDx=0;exitDy=0;exitPerimeter=0;" edge="1" parent="aSaav4n1bJc0CXSEU9K_-37" source="aSaav4n1bJc0CXSEU9K_-48" target="aSaav4n1bJc0CXSEU9K_-48">
          <mxGeometry width="50" height="50" relative="1" as="geometry">
            <mxPoint x="140" y="130" as="sourcePoint" />
            <mxPoint x="90" y="80" as="targetPoint" />
            <Array as="points">
              <mxPoint x="120" y="102" />
              <mxPoint x="120" y="120" />
            </Array>
          </mxGeometry>
        </mxCell>
        <mxCell id="aSaav4n1bJc0CXSEU9K_-52" value="利用appsercretKey生成userSig" style="text;html=1;strokeColor=none;fillColor=none;align=center;verticalAlign=middle;whiteSpace=wrap;rounded=0;fontFamily=Helvetica;fontSize=12;fontColor=rgb(0, 0, 0);" vertex="1" parent="aSaav4n1bJc0CXSEU9K_-37">
          <mxGeometry x="130" y="110" width="60" height="30" as="geometry" />
        </mxCell>
        <mxCell id="aSaav4n1bJc0CXSEU9K_-49" value="" style="endArrow=classic;html=1;rounded=0;fontFamily=Helvetica;fontSize=12;fontColor=rgb(0, 0, 0);exitX=0.912;exitY=0.454;exitDx=0;exitDy=0;exitPerimeter=0;" edge="1" parent="1" source="aSaav4n1bJc0CXSEU9K_-32" target="aSaav4n1bJc0CXSEU9K_-37">
          <mxGeometry width="50" height="50" relative="1" as="geometry">
            <mxPoint x="250" y="199" as="sourcePoint" />
            <mxPoint x="862.6000000000004" y="206.36000000000013" as="targetPoint" />
          </mxGeometry>
        </mxCell>
        <mxCell id="aSaav4n1bJc0CXSEU9K_-50" value="获取userSig" style="edgeLabel;html=1;align=center;verticalAlign=middle;resizable=0;points=[];fontSize=12;fontFamily=Helvetica;fontColor=rgb(0, 0, 0);" vertex="1" connectable="0" parent="aSaav4n1bJc0CXSEU9K_-49">
          <mxGeometry x="-0.0552" y="-1" relative="1" as="geometry">
            <mxPoint as="offset" />
          </mxGeometry>
        </mxCell>
        <mxCell id="aSaav4n1bJc0CXSEU9K_-53" value="" style="endArrow=classic;html=1;rounded=0;fontFamily=Helvetica;fontSize=12;fontColor=rgb(0, 0, 0);entryX=1.15;entryY=0.81;entryDx=0;entryDy=0;entryPerimeter=0;exitX=-0.16;exitY=0.858;exitDx=0;exitDy=0;exitPerimeter=0;dashed=1;" edge="1" parent="1" source="aSaav4n1bJc0CXSEU9K_-48" target="aSaav4n1bJc0CXSEU9K_-32">
          <mxGeometry width="50" height="50" relative="1" as="geometry">
            <mxPoint x="320.4000000000001" y="270" as="sourcePoint" />
            <mxPoint x="209" y="208.96000000000004" as="targetPoint" />
          </mxGeometry>
        </mxCell>
        <mxCell id="aSaav4n1bJc0CXSEU9K_-54" value="获取userSig" style="edgeLabel;html=1;align=center;verticalAlign=middle;resizable=0;points=[];fontSize=12;fontFamily=Helvetica;fontColor=rgb(0, 0, 0);" vertex="1" connectable="0" parent="aSaav4n1bJc0CXSEU9K_-53">
          <mxGeometry x="-0.0552" y="-1" relative="1" as="geometry">
            <mxPoint as="offset" />
          </mxGeometry>
        </mxCell>
        <mxCell id="aSaav4n1bJc0CXSEU9K_-59" value="" style="edgeStyle=orthogonalEdgeStyle;rounded=0;orthogonalLoop=1;jettySize=auto;html=1;fontFamily=Helvetica;fontSize=12;fontColor=rgb(0, 0, 0);exitX=1.31;exitY=0.852;exitDx=0;exitDy=0;exitPerimeter=0;startArrow=classic;startFill=1;endArrow=none;endFill=0;" edge="1" parent="1" source="3elcdA-hPDRkj9ZMIHb9-16">
          <mxGeometry relative="1" as="geometry">
            <mxPoint x="231.70000000000005" y="479.28" as="sourcePoint" />
            <mxPoint x="680" y="460" as="targetPoint" />
          </mxGeometry>
        </mxCell>
        <mxCell id="aSaav4n1bJc0CXSEU9K_-60" value="建立websocket长连接" style="edgeLabel;html=1;align=center;verticalAlign=middle;resizable=0;points=[];fontSize=12;fontFamily=Helvetica;fontColor=rgb(0, 0, 0);" vertex="1" connectable="0" parent="aSaav4n1bJc0CXSEU9K_-59">
          <mxGeometry x="0.0659" y="-1" relative="1" as="geometry">
            <mxPoint as="offset" />
          </mxGeometry>
        </mxCell>
        <mxCell id="3elcdA-hPDRkj9ZMIHb9-32" value="" style="html=1;points=[];perimeter=orthogonalPerimeter;strokeColor=rgb(0, 0, 0);fontFamily=Helvetica;fontSize=12;fontColor=rgb(0, 0, 0);fillColor=rgb(255, 255, 255);" parent="1" vertex="1">
          <mxGeometry x="474" y="646" width="10" height="133" as="geometry" />
        </mxCell>
        <mxCell id="aSaav4n1bJc0CXSEU9K_-64" value="" style="endArrow=classic;html=1;rounded=0;fontFamily=Helvetica;fontSize=12;fontColor=rgb(0, 0, 0);exitX=-0.16;exitY=0.138;exitDx=0;exitDy=0;exitPerimeter=0;" edge="1" parent="1" source="aSaav4n1bJc0CXSEU9K_-48" target="3elcdA-hPDRkj9ZMIHb9-9">
          <mxGeometry width="50" height="50" relative="1" as="geometry">
            <mxPoint x="680" y="220" as="sourcePoint" />
            <mxPoint x="730" y="170" as="targetPoint" />
          </mxGeometry>
        </mxCell>
        <mxCell id="aSaav4n1bJc0CXSEU9K_-65" value="申请appid+sercret" style="edgeLabel;html=1;align=center;verticalAlign=middle;resizable=0;points=[];fontSize=12;fontFamily=Helvetica;fontColor=rgb(0, 0, 0);" vertex="1" connectable="0" parent="aSaav4n1bJc0CXSEU9K_-64">
          <mxGeometry x="-0.1484" relative="1" as="geometry">
            <mxPoint x="-11" as="offset" />
          </mxGeometry>
        </mxCell>
        <mxCell id="aSaav4n1bJc0CXSEU9K_-67" value="" style="endArrow=classic;html=1;rounded=0;fontFamily=Helvetica;fontSize=12;fontColor=rgb(0, 0, 0);exitX=-0.258;exitY=0.29;exitDx=0;exitDy=0;exitPerimeter=0;entryX=1;entryY=0.107;entryDx=0;entryDy=0;entryPerimeter=0;" edge="1" parent="1" source="3elcdA-hPDRkj9ZMIHb9-39" target="3elcdA-hPDRkj9ZMIHb9-32">
          <mxGeometry width="50" height="50" relative="1" as="geometry">
            <mxPoint x="570" y="677" as="sourcePoint" />
            <mxPoint x="494" y="660" as="targetPoint" />
          </mxGeometry>
        </mxCell>
        <mxCell id="aSaav4n1bJc0CXSEU9K_-68" value="通过route转发" style="edgeLabel;html=1;align=center;verticalAlign=middle;resizable=0;points=[];fontSize=12;fontFamily=Helvetica;fontColor=rgb(0, 0, 0);" vertex="1" connectable="0" parent="aSaav4n1bJc0CXSEU9K_-67">
          <mxGeometry x="0.1631" relative="1" as="geometry">
            <mxPoint as="offset" />
          </mxGeometry>
        </mxCell>
        <mxCell id="aSaav4n1bJc0CXSEU9K_-69" value="" style="endArrow=classic;html=1;rounded=0;fontFamily=Helvetica;fontSize=12;fontColor=rgb(0, 0, 0);exitX=1.1;exitY=0.282;exitDx=0;exitDy=0;exitPerimeter=0;" edge="1" parent="1" source="3elcdA-hPDRkj9ZMIHb9-32" target="3elcdA-hPDRkj9ZMIHb9-32">
          <mxGeometry width="50" height="50" relative="1" as="geometry">
            <mxPoint x="532" y="753" as="sourcePoint" />
            <mxPoint x="570" y="703" as="targetPoint" />
            <Array as="points">
              <mxPoint x="532" y="684" />
            </Array>
          </mxGeometry>
        </mxCell>
        <mxCell id="3elcdA-hPDRkj9ZMIHb9-37" value="查询群组用户&lt;br&gt;查询用户所属IM服务器" style="text;html=1;align=center;verticalAlign=middle;resizable=0;points=[];autosize=1;strokeColor=none;fillColor=none;fontSize=12;fontFamily=Helvetica;fontColor=rgb(0, 0, 0);" parent="1" vertex="1">
          <mxGeometry x="513" y="684" width="140" height="40" as="geometry" />
        </mxCell>
      </root>
    </mxGraphModel>
  </diagram>
</mxfile>
